<svg width="79" height="71" viewBox="0 0 79 71" fill="none" xmlns="http://www.w3.org/2000/svg">
<path d="M47.874 7.88889L55.1025 15.7778H71.1V63.1111H7.9V15.7778H23.8975L31.126 7.88889H47.874ZM51.35 0H27.65L20.4215 7.88889H7.9C3.555 7.88889 0 11.4389 0 15.7778V63.1111C0 67.45 3.555 71 7.9 71H71.1C75.445 71 79 67.45 79 63.1111V15.7778C79 11.4389 75.445 7.88889 71.1 7.88889H58.5785L51.35 0ZM39.5 27.6111C46.0175 27.6111 51.35 32.9361 51.35 39.4444C51.35 45.9528 46.0175 51.2778 39.5 51.2778C32.9825 51.2778 27.65 45.9528 27.65 39.4444C27.65 32.9361 32.9825 27.6111 39.5 27.6111ZM39.5 19.7222C28.598 19.7222 19.75 28.5578 19.75 39.4444C19.75 50.3311 28.598 59.1667 39.5 59.1667C50.402 59.1667 59.25 50.3311 59.25 39.4444C59.25 28.5578 50.402 19.7222 39.5 19.7222Z" fill="black"/>
</svg>
