<svg width="24" height="24" viewBox="0 0 24 24" fill="none" xmlns="http://www.w3.org/2000/svg">
<path d="M9.375 20.25C9.375 20.6208 9.26503 20.9834 9.05901 21.2917C8.85298 21.6 8.56014 21.8404 8.21753 21.9823C7.87492 22.1242 7.49792 22.1613 7.13421 22.089C6.77049 22.0166 6.4364 21.838 6.17418 21.5758C5.91195 21.3136 5.73338 20.9795 5.66103 20.6158C5.58868 20.2521 5.62581 19.8751 5.76773 19.5325C5.90964 19.1899 6.14996 18.897 6.45831 18.691C6.76665 18.485 7.12916 18.375 7.5 18.375C7.99652 18.3775 8.472 18.5758 8.8231 18.9269C9.1742 19.278 9.37254 19.7535 9.375 20.25ZM17.25 18.375C16.8792 18.375 16.5166 18.485 16.2083 18.691C15.9 18.897 15.6596 19.1899 15.5177 19.5325C15.3758 19.8751 15.3387 20.2521 15.411 20.6158C15.4834 20.9795 15.662 21.3136 15.9242 21.5758C16.1864 21.838 16.5205 22.0166 16.8842 22.089C17.2479 22.1613 17.6249 22.1242 17.9675 21.9823C18.3101 21.8404 18.603 21.6 18.809 21.2917C19.015 20.9834 19.125 20.6208 19.125 20.25C19.1225 19.7535 18.9242 19.278 18.5731 18.9269C18.222 18.5758 17.7465 18.3775 17.25 18.375ZM21.8719 7.05938L19.6031 14.9719C19.445 15.5191 19.1138 16.0003 18.6591 16.3434C18.2045 16.6866 17.6509 16.8731 17.0813 16.875H7.66875C7.09915 16.8731 6.54552 16.6866 6.09086 16.3434C5.63619 16.0003 5.30498 15.5191 5.14688 14.9719L2.8875 7.07812C2.8875 7.06875 2.87813 7.05 2.87813 7.04062L2.04375 4.125H1.125C0.826632 4.125 0.540483 4.00647 0.329505 3.7955C0.118526 3.58452 0 3.29837 0 3C0 2.70163 0.118526 2.41548 0.329505 2.2045C0.540483 1.99353 0.826632 1.875 1.125 1.875H2.325C2.73237 1.87809 3.128 2.01182 3.4537 2.25652C3.77941 2.50122 4.01799 2.84397 4.13438 3.23438L4.80938 5.625H20.7844C20.9584 5.62599 21.1298 5.66701 21.2855 5.74487C21.4411 5.82273 21.5767 5.93535 21.6818 6.07401C21.787 6.21268 21.8588 6.37367 21.8917 6.54454C21.9247 6.7154 21.9179 6.89156 21.8719 7.05938ZM19.2938 7.875H5.45625L7.30313 14.3531C7.32712 14.4315 7.37553 14.5002 7.44131 14.5491C7.50709 14.598 7.58678 14.6246 7.66875 14.625H17.0813C17.1632 14.6246 17.2429 14.598 17.3087 14.5491C17.3745 14.5002 17.4229 14.4315 17.4469 14.3531L19.2938 7.875Z" fill="black"/>
</svg>
