<svg width="27" height="27" viewBox="0 0 27 27" fill="none" xmlns="http://www.w3.org/2000/svg">
<path d="M13.5 27C6.04395 27 0 20.9561 0 13.5C0 6.04395 6.04395 0 13.5 0C20.9561 0 27 6.04395 27 13.5C27 20.9561 20.9561 27 13.5 27ZM8.775 16.2V18.9H12.15V21.6H14.85V18.9H16.2C17.0951 18.9 17.9536 18.5444 18.5865 17.9115C19.2194 17.2786 19.575 16.4201 19.575 15.525C19.575 14.6299 19.2194 13.7715 18.5865 13.1385C17.9536 12.5056 17.0951 12.15 16.2 12.15H10.8C10.621 12.15 10.4493 12.0789 10.3227 11.9523C10.1961 11.8257 10.125 11.654 10.125 11.475C10.125 11.296 10.1961 11.1243 10.3227 10.9977C10.4493 10.8711 10.621 10.8 10.8 10.8H18.225V8.1H14.85V5.4H12.15V8.1H10.8C9.90489 8.1 9.04645 8.45558 8.41351 9.08851C7.78058 9.72145 7.425 10.5799 7.425 11.475C7.425 12.3701 7.78058 13.2286 8.41351 13.8615C9.04645 14.4944 9.90489 14.85 10.8 14.85H16.2C16.379 14.85 16.5507 14.9211 16.6773 15.0477C16.8039 15.1743 16.875 15.346 16.875 15.525C16.875 15.704 16.8039 15.8757 16.6773 16.0023C16.5507 16.1289 16.379 16.2 16.2 16.2H8.775Z" fill="black"/>
</svg>
