<svg width="94" height="40" viewBox="0 0 94 40" fill="none" xmlns="http://www.w3.org/2000/svg">
<rect y="2" width="27" height="38" rx="10" fill="black"/>
<circle cx="12.5" cy="9.5" r="3.5" fill="#FF2D6C"/>
<path d="M16.35 24.45H9.075L7.825 28H4.85L11.075 10.6H14.375L20.6 28H17.6L16.35 24.45ZM15.55 22.125L12.725 14.05L9.875 22.125H15.55Z" fill="white"/>
<path d="M35.5258 28.175C34.3591 28.175 33.3091 27.975 32.3758 27.575C31.4424 27.1583 30.7091 26.575 30.1758 25.825C29.6424 25.075 29.3758 24.2 29.3758 23.2H32.4258C32.4924 23.95 32.7841 24.5667 33.3008 25.05C33.8341 25.5333 34.5758 25.775 35.5258 25.775C36.5091 25.775 37.2758 25.5417 37.8258 25.075C38.3758 24.5917 38.6508 23.975 38.6508 23.225C38.6508 22.6417 38.4758 22.1667 38.1258 21.8C37.7924 21.4333 37.3674 21.15 36.8508 20.95C36.3508 20.75 35.6508 20.5333 34.7508 20.3C33.6174 20 32.6924 19.7 31.9758 19.4C31.2758 19.0833 30.6758 18.6 30.1758 17.95C29.6758 17.3 29.4258 16.4333 29.4258 15.35C29.4258 14.35 29.6758 13.475 30.1758 12.725C30.6758 11.975 31.3758 11.4 32.2758 11C33.1758 10.6 34.2174 10.4 35.4008 10.4C37.0841 10.4 38.4591 10.825 39.5258 11.675C40.6091 12.5083 41.2091 13.6583 41.3258 15.125H38.1758C38.1258 14.4917 37.8258 13.95 37.2758 13.5C36.7258 13.05 36.0008 12.825 35.1008 12.825C34.2841 12.825 33.6174 13.0333 33.1008 13.45C32.5841 13.8667 32.3258 14.4667 32.3258 15.25C32.3258 15.7833 32.4841 16.225 32.8008 16.575C33.1341 16.9083 33.5508 17.175 34.0508 17.375C34.5508 17.575 35.2341 17.7917 36.1008 18.025C37.2508 18.3417 38.1841 18.6583 38.9008 18.975C39.6341 19.2917 40.2508 19.7833 40.7508 20.45C41.2674 21.1 41.5258 21.975 41.5258 23.075C41.5258 23.9583 41.2841 24.7917 40.8008 25.575C40.3341 26.3583 39.6424 26.9917 38.7258 27.475C37.8258 27.9417 36.7591 28.175 35.5258 28.175ZM48.2137 16.55V24.175C48.2137 24.6917 48.3303 25.0667 48.5637 25.3C48.8137 25.5167 49.2303 25.625 49.8137 25.625H51.5637V28H49.3137C48.0303 28 47.047 27.7 46.3637 27.1C45.6803 26.5 45.3387 25.525 45.3387 24.175V16.55H43.7137V14.225H45.3387V10.8H48.2137V14.225H51.5637V16.55H48.2137ZM60.1654 28.225C58.8654 28.225 57.6904 27.9333 56.6404 27.35C55.5904 26.75 54.7654 25.9167 54.1654 24.85C53.5654 23.7667 53.2654 22.5167 53.2654 21.1C53.2654 19.7 53.5738 18.4583 54.1904 17.375C54.8071 16.2917 55.6488 15.4583 56.7154 14.875C57.7821 14.2917 58.9738 14 60.2904 14C61.6071 14 62.7988 14.2917 63.8654 14.875C64.9321 15.4583 65.7738 16.2917 66.3904 17.375C67.0071 18.4583 67.3154 19.7 67.3154 21.1C67.3154 22.5 66.9988 23.7417 66.3654 24.825C65.7321 25.9083 64.8654 26.75 63.7654 27.35C62.6821 27.9333 61.4821 28.225 60.1654 28.225ZM60.1654 25.75C60.8988 25.75 61.5821 25.575 62.2154 25.225C62.8654 24.875 63.3904 24.35 63.7904 23.65C64.1904 22.95 64.3904 22.1 64.3904 21.1C64.3904 20.1 64.1988 19.2583 63.8154 18.575C63.4321 17.875 62.9238 17.35 62.2904 17C61.6571 16.65 60.9738 16.475 60.2404 16.475C59.5071 16.475 58.8238 16.65 58.1904 17C57.5738 17.35 57.0821 17.875 56.7154 18.575C56.3488 19.2583 56.1654 20.1 56.1654 21.1C56.1654 22.5833 56.5404 23.7333 57.2904 24.55C58.0571 25.35 59.0154 25.75 60.1654 25.75ZM72.9828 16.225C73.3995 15.525 73.9495 14.9833 74.6328 14.6C75.3328 14.2 76.1578 14 77.1078 14V16.95H76.3828C75.2661 16.95 74.4161 17.2333 73.8328 17.8C73.2661 18.3667 72.9828 19.35 72.9828 20.75V28H70.1328V14.225H72.9828V16.225ZM92.3525 20.775C92.3525 21.2917 92.3192 21.7583 92.2525 22.175H81.7275C81.8109 23.275 82.2192 24.1583 82.9525 24.825C83.6859 25.4917 84.5859 25.825 85.6525 25.825C87.1859 25.825 88.2692 25.1833 88.9025 23.9H91.9775C91.5609 25.1667 90.8025 26.2083 89.7025 27.025C88.6192 27.825 87.2692 28.225 85.6525 28.225C84.3359 28.225 83.1525 27.9333 82.1025 27.35C81.0692 26.75 80.2525 25.9167 79.6525 24.85C79.0692 23.7667 78.7775 22.5167 78.7775 21.1C78.7775 19.6833 79.0609 18.4417 79.6275 17.375C80.2109 16.2917 81.0192 15.4583 82.0525 14.875C83.1025 14.2917 84.3025 14 85.6525 14C86.9525 14 88.1109 14.2833 89.1275 14.85C90.1442 15.4167 90.9359 16.2167 91.5025 17.25C92.0692 18.2667 92.3525 19.4417 92.3525 20.775ZM89.3775 19.875C89.3609 18.825 88.9859 17.9833 88.2525 17.35C87.5192 16.7167 86.6109 16.4 85.5275 16.4C84.5442 16.4 83.7025 16.7167 83.0025 17.35C82.3025 17.9667 81.8859 18.8083 81.7525 19.875H89.3775Z" fill="black"/>
</svg>
