<svg width="53" height="84" viewBox="0 0 53 84" fill="none" xmlns="http://www.w3.org/2000/svg">
<path d="M20.8214 72.5455H32.1786C32.6833 72.5455 33.125 72.3545 33.5036 71.9727C33.8821 71.5909 34.0714 71.1455 34.0714 70.6364C34.0714 70.1273 33.8821 69.6818 33.5036 69.3C33.125 68.9182 32.6833 68.7273 32.1786 68.7273H20.8214C20.3167 68.7273 19.875 68.9182 19.4964 69.3C19.1179 69.6818 18.9286 70.1273 18.9286 70.6364C18.9286 71.1455 19.1179 71.5909 19.4964 71.9727C19.875 72.3545 20.3167 72.5455 20.8214 72.5455ZM7.57143 84C5.48929 84 3.70748 83.2529 2.226 81.7587C0.741999 80.262 0 78.4636 0 76.3636V7.63636C0 5.53636 0.741999 3.738 2.226 2.24127C3.70748 0.747091 5.48929 0 7.57143 0H45.4286C47.5107 0 49.2938 0.747091 50.7778 2.24127C52.2593 3.738 53 5.53636 53 7.63636V76.3636C53 78.4636 52.2593 80.262 50.7778 81.7587C49.2938 83.2529 47.5107 84 45.4286 84H7.57143ZM7.57143 57.2727H45.4286V19.0909H7.57143V57.2727Z" fill="black"/>
</svg>
