<svg width="86" height="80" viewBox="0 0 86 80" fill="none" xmlns="http://www.w3.org/2000/svg">
<path d="M85.9846 0H57.7612L56.3547 1.42014V57.6822L57.3681 65.0608H56.2564V65.8141H55.3136V64.8694H53.4402V65.6227H52.482V64.4896H50.9925V65.4343H47.5959L41.3923 64.3013V61.461H44.0242L44.9517 56.9228H53.3266C53.6035 56.9228 53.8691 56.8122 54.0649 56.6153C54.2607 56.4185 54.3707 56.1515 54.3707 55.8731V14.473C54.3712 14.3354 54.3444 14.199 54.292 14.0718C54.2396 13.9446 54.1626 13.8291 54.0655 13.7321C53.9683 13.635 53.853 13.5583 53.7262 13.5064C53.5993 13.4544 53.4635 13.4283 53.3266 13.4296H1.03803C0.762978 13.4304 0.499421 13.5406 0.304927 13.7361C0.110434 13.9316 0.000810179 14.1965 0 14.473V55.8793C0 56.4566 0.466807 56.929 1.04417 56.929H10.3035L10.9178 61.4672H15.2419L4.80013 71.9639L2.635 76.5948C2.635 76.5948 11.664 80 23.1438 80C34.6205 80 52.8721 77.3542 55.3166 77.3542H70.1808V73.5693L69.76 70.2752H75.116C74.5018 70.6024 74.1333 71.0284 74.1333 71.4977V74.517C74.1333 75.5667 75.9851 76.4095 78.2793 76.4095C80.5611 76.4095 82.4252 75.576 82.4252 74.5201V71.4946C82.4252 70.4511 80.5672 69.6114 78.2793 69.6114C77.705 69.6114 77.1644 69.6731 76.67 69.7658V69.2409H69.6372L69.4683 67.9041H86L85.9846 0ZM3.7621 52.5759V17.2083H50.0436V52.5759H3.76517H3.7621Z" fill="black"/>
</svg>
