<svg width="88" height="88" viewBox="0 0 88 88" fill="none" xmlns="http://www.w3.org/2000/svg">
<path d="M50.9872 59.4997V49.8667C50.9872 49.0887 50.6782 48.3426 50.128 47.7925C49.5779 47.2424 48.8318 46.9333 48.0539 46.9333H42.1872C41.4092 46.9333 40.6631 47.2424 40.113 47.7925C39.5629 48.3426 39.2539 49.0887 39.2539 49.8667V59.4939C34.7956 60.634 30.7723 63.063 27.6868 66.4771C24.6014 69.8912 22.5907 74.1391 21.9061 78.6896C21.8392 79.1138 21.8649 79.5474 21.9815 79.9606C22.0981 80.3739 22.3028 80.757 22.5815 81.0837C22.8602 81.4103 23.2064 81.6728 23.5961 81.853C23.9859 82.0331 24.4101 82.1268 24.8395 82.1275H65.4485C65.8779 82.1268 66.3021 82.0331 66.6919 81.853C67.0816 81.6728 67.4278 81.4103 67.7065 81.0837C67.9852 80.757 68.1899 80.3739 68.3065 79.9606C68.423 79.5474 68.4488 79.1138 68.3819 78.6896C67.6928 74.1341 65.6747 69.8833 62.5804 66.4697C59.4862 63.0561 55.4533 60.6315 50.9872 59.4997ZM78.2027 36.8368L63.536 7.50347C63.2946 7.01356 62.9212 6.60077 62.4579 6.31159C61.9946 6.02241 61.4597 5.86832 60.9136 5.86667H29.3275C28.7842 5.86777 28.2518 6.01975 27.7898 6.30565C27.3278 6.59155 26.9543 7.00014 26.7109 7.48587L12.0443 36.8192C11.8208 37.2651 11.7148 37.7606 11.7361 38.2588C11.7574 38.7571 11.9054 39.2417 12.1662 39.6669C12.4269 40.092 12.7917 40.4437 13.2262 40.6886C13.6606 40.9335 14.1503 41.0637 14.6491 41.0667H62.7205V49.8667C62.7205 50.6446 63.0296 51.3907 63.5797 51.9408C64.1298 52.491 64.8759 52.8 65.6539 52.8C66.4318 52.8 67.1779 52.491 67.728 51.9408C68.2781 51.3907 68.5872 50.6446 68.5872 49.8667V41.0667H75.592C76.0888 41.0632 76.5766 40.9336 77.0096 40.69C77.4426 40.4464 77.8067 40.0968 78.0676 39.674C78.3286 39.2513 78.4778 38.7691 78.5015 38.2729C78.5251 37.7766 78.4223 37.2825 78.2027 36.8368Z" fill="black"/>
</svg>
